# xmcd
#
# Track frame offsets:
#	150
#	39071
#	99815
#	119773
#	167447
#	209641
#	237381
#	265636
#	295205
#	323193
#
# Disc length: 4502 seconds
#
# Revision: 1
# Processed by: cddbd v1.5.2PL0 Copyright (c) Steve Scherf et al.
# Submitted via: audiograbber 1.83.01
#
DISCID=8611940a
DTITLE=Grateful Dead - 80-09-02 Community War Memorial, Rochester NY
DYEAR=1900
DGENRE=
TTITLE0=New Minglewood Blues
TTITLE1=Sugaree
TTITLE2=El Paso
TTITLE3=Friend Of The Devil
TTITLE4=It's All Over Now
TTITLE5=China Cat Sunflower
TTITLE6=I Know You Rider
TTITLE7=Lost Sailor
TTITLE8=Saint Of Circumstance
TTITLE9=Don't Ease Me In
EXTD=
EXTT0=
EXTT1=
EXTT2=
EXTT3=
EXTT4=
EXTT5=
EXTT6=
EXTT7=
EXTT8=
EXTT9=
PLAYORDER=
